<svg xmlns="http://www.w3.org/2000/svg" width="106.274" height="106.294" viewBox="0 0 106.274 106.294"><g transform="translate(0)"><path d="M106.453,31.251a38.84,38.84,0,0,0-2.471-12.9A27.229,27.229,0,0,0,88.429,2.8,38.94,38.94,0,0,0,75.534.333C69.844.062,68.038,0,53.606,0S37.368.062,31.7.312A38.851,38.851,0,0,0,18.805,2.782,25.935,25.935,0,0,0,9.377,8.929a26.17,26.17,0,0,0-6.126,9.407A38.945,38.945,0,0,0,.781,31.23c-.27,5.69-.333,7.5-.333,21.928S.511,69.4.76,75.065a38.838,38.838,0,0,0,2.471,12.9,27.224,27.224,0,0,0,15.552,15.552,38.946,38.946,0,0,0,12.9,2.471c5.668.25,7.475.311,21.907.311s16.238-.062,21.907-.311a38.831,38.831,0,0,0,12.894-2.471A27.188,27.188,0,0,0,103.941,87.96a38.971,38.971,0,0,0,2.471-12.9c.249-5.669.311-7.475.311-21.907s-.021-16.238-.27-21.907Zm-9.572,43.4a29.134,29.134,0,0,1-1.827,9.863A17.632,17.632,0,0,1,84.961,94.6,29.238,29.238,0,0,1,75.1,96.431c-5.606.25-7.288.311-21.47.311s-15.885-.062-21.471-.311A29.12,29.12,0,0,1,22.293,94.6a16.356,16.356,0,0,1-6.1-3.966,16.526,16.526,0,0,1-3.966-6.1A29.243,29.243,0,0,1,10.4,74.67c-.25-5.606-.311-7.289-.311-21.471s.062-15.885.311-21.47a29.12,29.12,0,0,1,1.827-9.863A16.156,16.156,0,0,1,16.21,15.76a16.5,16.5,0,0,1,6.1-3.966,29.258,29.258,0,0,1,9.863-1.827c5.606-.249,7.289-.311,21.47-.311,14.2,0,15.885.062,21.471.311a29.135,29.135,0,0,1,9.863,1.827,16.344,16.344,0,0,1,6.1,3.966,16.522,16.522,0,0,1,3.966,6.105,29.253,29.253,0,0,1,1.827,9.863c.249,5.606.311,7.288.311,21.47s-.062,15.844-.311,21.45Zm0,0" transform="translate(-0.449 0)"/><path d="M152.255,124.5a27.306,27.306,0,1,0,27.306,27.306A27.313,27.313,0,0,0,152.255,124.5Zm0,45.018a17.713,17.713,0,1,1,17.713-17.712,17.715,17.715,0,0,1-17.713,17.712Zm0,0" transform="translate(-99.097 -98.648)"/><path d="M375.2,94.976a6.375,6.375,0,1,1-6.375-6.375A6.375,6.375,0,0,1,375.2,94.976Zm0,0" transform="translate(-287.281 -70.204)"/></g></svg>