<svg xmlns="http://www.w3.org/2000/svg" width="106.274" height="106.274" viewBox="0 0 106.274 106.274"><path d="M33.213,87.8H18.683V40.891h14.53Zm1.45-61.856a8.509,8.509,0,1,0-8.505,8.511A8.511,8.511,0,0,0,34.662,25.945ZM87.594,61.993c0-12.593-2.66-21.932-17.371-21.932-7.069,0-11.813,3.535-13.75,7.211h-.014V40.891H42.344V87.8H56.459V64.509c0-6.1,1.553-12.009,9.114-12.009,7.458,0,7.7,6.975,7.7,12.4V87.8H87.594ZM106.275,93.82V12.454A12.468,12.468,0,0,0,93.821,0H12.454A12.468,12.468,0,0,0,0,12.454V93.82a12.468,12.468,0,0,0,12.454,12.454H93.821A12.468,12.468,0,0,0,106.275,93.82ZM93.821,8.3a4.156,4.156,0,0,1,4.151,4.151V93.82a4.156,4.156,0,0,1-4.151,4.151H12.454A4.156,4.156,0,0,1,8.3,93.82V12.454A4.156,4.156,0,0,1,12.454,8.3Zm0,0" transform="translate(0)"/></svg>