<svg xmlns="http://www.w3.org/2000/svg" width="140.519" height="107.274" viewBox="0 0 140.519 107.274"><g transform="translate(0.5 0.5)"><g transform="translate(0 0)"><path d="M127.257,61H12.262A12.283,12.283,0,0,0,0,73.262v81.749a12.282,12.282,0,0,0,12.262,12.262H127.257a12.282,12.282,0,0,0,12.262-12.262V73.262A12.282,12.282,0,0,0,127.257,61Zm-1.693,8.175L70.019,124.719,14,69.175ZM8.175,153.319v-78.4l39.37,39.033Zm5.78,5.78,39.4-39.4,13.8,13.685a4.087,4.087,0,0,0,5.768-.013l13.459-13.459L125.563,159.1Zm117.389-5.781L92.162,114.137l39.182-39.182Z" transform="translate(0 -61)" stroke="#000" stroke-width="1"/></g></g></svg>