<svg xmlns="http://www.w3.org/2000/svg" viewBox="0 0 33.42 20.98"><defs><style>.cls-1{fill:#ff0;}</style></defs><g id="Layer_2" data-name="Layer 2"><g id="Layer_1-2" data-name="Layer 1"><path d="M3,6.6a1.69,1.69,0,0,0,.11.63c.21.58.86.7,1.41.7S5.7,7.77,5.7,7.06c0-.5-.42-.63-2.07-1.1S.38,5.11.38,3.17C.38,1,2.27,0,4.25,0s3.92.79,4,3.13H5.46a.74.74,0,0,0-.35-.76,1.51,1.51,0,0,0-.88-.25c-.4,0-1.06.11-1.06.65S4.6,3.6,6,4s2.7,1,2.7,2.77c0,2.5-2.3,3.31-4.44,3.31C3.13,10.06,0,9.67,0,6.6Z"/><path d="M16.34,8.27a2.8,2.8,0,0,0,.32,1.56H13.94a2.15,2.15,0,0,1-.09-.66h0a2.83,2.83,0,0,1-2.24.83c-1.35,0-2.46-.64-2.46-2.11,0-2.2,2.58-2.12,3.94-2.38.36-.07.72-.17.72-.62s-.44-.64-.87-.64c-.82,0-1,.42-1,.71H9.44a2,2,0,0,1,1.21-1.88A5.76,5.76,0,0,1,13,2.68c3.33,0,3.31,1.38,3.31,2.72ZM13.78,6.7a4.44,4.44,0,0,1-1,.33c-.59.14-.9.28-.9.75a.77.77,0,0,0,.84.65,1.05,1.05,0,0,0,1.11-1.09Z"/><path d="M17.75,2.85h2.57v.89h0a2.54,2.54,0,0,1,2.27-1.06A2.24,2.24,0,0,1,25,5V9.83H22.35V6.17c0-.81-.1-1.37-.88-1.37-.45,0-1.06.23-1.06,1.34V9.83H17.75Z"/><path d="M29.18,2.1H26.52V.23h2.66Zm-2.66.75h2.66v7H26.52Z"/><path d="M30.76.23h2.66v9.6H30.76Z"/><path d="M.5,15.12c-.15-2.56,1.45-4,4-4,2.28,0,3.82.95,3.82,2.94,0,2.4-2.34,3.15-4.1,4.22v0H8.42v2.28H.31A3.51,3.51,0,0,1,1,18.23,11,11,0,0,1,4.3,15.7c.49-.29,1.27-.67,1.27-1.36A1,1,0,0,0,4.44,13.2C3.36,13.2,3,14,3,15.12Z"/><path d="M11.93,18.08a.84.84,0,0,0,.41.5,1.45,1.45,0,0,0,.65.13c1.21,0,1.53-1.11,1.68-1.88l0,0a3,3,0,0,1-2.09.74,2.87,2.87,0,0,1-3.18-3c0-2.27,1.82-3.49,3.94-3.49,2.74,0,3.94,2.09,3.94,4.45,0,3-1.4,5.12-4.26,5.12-1.73,0-3.23-.73-3.52-2.57Zm-.08-3.59a1.31,1.31,0,0,0,1.34,1.27,1.27,1.27,0,0,0,1.35-1.25,1.3,1.3,0,0,0-1.32-1.31A1.34,1.34,0,0,0,11.85,14.49Z"/><path d="M24.54,13.36a9.38,9.38,0,0,0-2.82,7.18h-3a11,11,0,0,1,1.91-5.6,6.49,6.49,0,0,1,1.14-1.47H17.32V11.19h7.22Z"/><rect class="cls-1" x="25.47" y="16.48" width="4.5" height="4.5" rx="2.25"/></g></g></svg>