<svg xmlns="http://www.w3.org/2000/svg" width="106.274" height="106.274" viewBox="0 0 106.274 106.274"><path d="M106.274,51.77A52.267,52.267,0,0,1,28.884,97.1L0,106.274,9.416,78.492A51.242,51.242,0,0,1,1.934,51.767a52.172,52.172,0,0,1,104.34,0ZM54.1,8.255A43.741,43.741,0,0,0,10.237,51.78a43.055,43.055,0,0,0,8.355,25.512L13.117,93.452,29.966,88.1a43.912,43.912,0,0,0,68-36.328A43.738,43.738,0,0,0,54.1,8.255Zm26.351,55.44c-.326-.523-1.178-.842-2.454-1.48s-7.568-3.7-8.736-4.12-2.031-.641-2.883.631-3.3,4.127-4.048,4.98-1.49.956-2.769.329a35.258,35.258,0,0,1-10.289-6.3,38.177,38.177,0,0,1-7.111-8.788c-.752-1.268-.076-1.955.558-2.585.572-.572,1.279-1.483,1.92-2.228a8.459,8.459,0,0,0,1.279-2.11,2.363,2.363,0,0,0-.107-2.228c-.319-.638-2.873-6.875-3.944-9.416s-2.128-2.117-2.876-2.117-1.6-.1-2.45-.1a4.682,4.682,0,0,0-3.407,1.58,14.2,14.2,0,0,0-4.474,10.583c0,6.252,4.578,12.278,5.219,13.124S42.725,67.524,55.724,72.6s13.006,3.382,15.348,3.167S78.641,72.7,79.7,69.745,80.769,64.225,80.446,63.695Z"/></svg>